<?xml version="1.0" encoding="utf-8"?>
<!-- Generator: Adobe Illustrator 18.0.0, SVG Export Plug-In . SVG Version: 6.00 Build 0)  -->
<!DOCTYPE svg PUBLIC "-//W3C//DTD SVG 1.1//EN" "http://www.w3.org/Graphics/SVG/1.1/DTD/svg11.dtd">
<svg version="1.1" id="Capa_1" xmlns:sketch="http://www.bohemiancoding.com/sketch/ns"
	 xmlns="http://www.w3.org/2000/svg" xmlns:xlink="http://www.w3.org/1999/xlink" x="0px" y="0px" viewBox="0 0 32 32"
	 enable-background="new 0 0 32 32" xml:space="preserve">
<title>icon 89 document file sql</title>
<desc>Created with Sketch.</desc>
<g>
	<path d="M16,10h5l-6-7v6C15,9.6,15.5,10,16,10z"/>
	<path d="M8,23v-7c0-1.7,1.3-3,3-3h10v-2h-5c-1.1,0-2-0.9-2-2V3H4C2.9,3,2,3.9,2,5v23c0,1.1,0.9,2,2,2h15c1.1,0,2-0.9,2-2v-2H11
		C9.3,26,8,24.7,8,23z"/>
	<path d="M28,14H11c-1.1,0-2,0.9-2,2v7c0,1.1,0.9,2,2,2h17c1.1,0,2-0.9,2-2v-7C30,14.9,29.1,14,28,14z M13,19h1c1.1,0,2,0.9,2,2
		c0,1.1-0.9,2-2,2h-1c-1.1,0-2-0.9-2-2v0h1v0c0,0.5,0.4,1,1,1h1c0.6,0,1-0.4,1-1c0-0.6-0.5-1-1-1h-1c-1.1,0-2-0.9-2-2
		c0-1.1,0.9-2,2-2h1c1.1,0,2,0.9,2,2h-1c0-0.5-0.4-1-1-1h-1c-0.6,0-1,0.4-1,1C12,18.6,12.5,19,13,19z M21.6,23.8l-0.9-0.9
		C20.5,23,20.2,23,20,23h-1c-1.1,0-2-0.9-2-2v-3c0-1.1,0.9-2,2-2h1c1.1,0,2,0.9,2,2v3c0,0.5-0.2,1-0.5,1.3l0.8,0.8L21.6,23.8z
		 M28,23h-5v-7h1v6h4V23z"/>
	<path d="M20,17h-1c-0.6,0-1,0.4-1,1v3c0,0.6,0.4,1,1,1h0.8l-1.1-1.1l0.7-0.7l1.4,1.4c0.1-0.2,0.2-0.4,0.2-0.6v-3
		C21,17.4,20.6,17,20,17z"/>
</g>
</svg>
