<?xml version="1.0" encoding="utf-8"?>
<!-- Generator: Adobe Illustrator 18.0.0, SVG Export Plug-In . SVG Version: 6.00 Build 0)  -->
<!DOCTYPE svg PUBLIC "-//W3C//DTD SVG 1.1//EN" "http://www.w3.org/Graphics/SVG/1.1/DTD/svg11.dtd">
<svg version="1.1" id="Capa_1" xmlns:sketch="http://www.bohemiancoding.com/sketch/ns"
	 xmlns="http://www.w3.org/2000/svg" xmlns:xlink="http://www.w3.org/1999/xlink" x="0px" y="0px" viewBox="0 0 32 32"
	 enable-background="new 0 0 32 32" xml:space="preserve">
<title>icon 89 document file sql</title>
<desc>Created with Sketch.</desc>
<g>
	<path d="M13,17h1c0.6,0,1,0.5,1,1h1c0-1.1-0.9-2-2-2h-1c-1.1,0-2,0.9-2,2c0,1.1,0.9,2,2,2h1c0.6,0,1,0.4,1,1c0,0.6-0.4,1-1,1h-1
		c-0.6,0-1-0.5-1-1v0h-1v0c0,1.1,0.9,2,2,2h1c1.1,0,2-0.9,2-2c0-1.1-0.9-2-2-2h-1c-0.6,0-1-0.4-1-1C12,17.4,12.4,17,13,17z"/>
	<path d="M28,13h-7v-3l-6-7H4C2.9,3,2,3.9,2,5v23c0,1.1,0.9,2,2,2h15c1.1,0,2-0.9,2-2v-2h7c1.7,0,3-1.3,3-3v-7
		C31,14.3,29.7,13,28,13z M15,4.5l4.7,5.5H16c-0.5,0-1-0.5-1-1V4.5z M20,28c0,0.5-0.4,1-1,1H4c-0.5,0-1-0.4-1-1V5c0-0.5,0.4-1,1-1
		h10v5c0,1.1,0.9,2,2,2h4v2h-9c-1.7,0-3,1.3-3,3v7c0,1.7,1.3,3,3,3h9V28z M30,23c0,1.1-0.9,2-2,2H11c-1.1,0-2-0.9-2-2v-7
		c0-1.1,0.9-2,2-2h17c1.1,0,2,0.9,2,2V23z"/>
	<path d="M22,21v-3c0-1.1-0.9-2-2-2h-1c-1.1,0-2,0.9-2,2v3c0,1.1,0.9,2,2,2h1c0.2,0,0.5,0,0.7-0.1l0.9,0.9l0.7-0.7l-0.8-0.8
		C21.8,22,22,21.5,22,21z M21,21c0,0.2-0.1,0.4-0.2,0.6l-1.4-1.4l-0.7,0.7l1.1,1.1H19c-0.6,0-1-0.4-1-1v-3c0-0.6,0.4-1,1-1h1
		c0.6,0,1,0.4,1,1V21z"/>
	<polygon points="24,16 23,16 23,23 28,23 28,22 24,22 	"/>
</g>
</svg>
